<svg xmlns="http://www.w3.org/2000/svg" version="1.1" xmlns:xlink="http://www.w3.org/1999/xlink" xmlns:svgjs="http://svgjs.dev/svgjs" width="1440" height="560" preserveAspectRatio="none" viewBox="0 0 1440 560"><g mask="url(&quot;#SvgjsMask1023&quot;)" fill="none"><rect width="1440" height="560" x="0" y="0" fill="rgba(255, 255, 255, 1)"></rect><path d="M482.41 453.42 a23.61 23.61 0 1 0 47.22 0 a23.61 23.61 0 1 0 -47.22 0z" stroke="#d3b714"></path><path d="M691.6 528.63L729.05 528.63L729.05 566.08L691.6 566.08z" fill="#e73635"></path><path d="M769.97 114.27 a36.82 36.82 0 1 0 73.64 0 a36.82 36.82 0 1 0 -73.64 0z" fill="#037b0b"></path><path d="M223.36 385.21 a16.94 16.94 0 1 0 33.88 0 a16.94 16.94 0 1 0 -33.88 0z" fill="#e73635"></path><path d="M1050.24 13.95L1103.43 13.95L1103.43 67.14L1050.24 67.14z" stroke="#037b0b"></path><path d="M291.62 189.88L345.13 189.88L345.13 243.39L291.62 243.39z" fill="#d3b714"></path><path d="M839.51 27.17a6.33 6.33 0 1 0-2.57-12.4z" stroke="#037b0b"></path><path d="M760.22 284.7L772.47 284.7L772.47 319.03L760.22 319.03z" fill="#d3b714"></path><path d="M1.9 348.47L33.23 348.47L33.23 379.45L1.9 379.45z" fill="#037b0b"></path><path d="M739.93 415.22L740.1 415.22L740.1 415.39L739.93 415.39z" fill="#d3b714"></path><path d="M1104.52 61.28 a12.11 12.11 0 1 0 24.22 0 a12.11 12.11 0 1 0 -24.22 0z" stroke="#d3b714"></path><path d="M1004.75 555a43.49 43.49 0 1 0 66.11-56.52z" fill="#d3b714"></path><path d="M414.07-23.36a34.82 34.82 0 1 0 24.4 65.23z" fill="#d3b714"></path><path d="M685.77 336.05L741.64 336.05L741.64 391.92L685.77 391.92z" stroke="#e73635"></path><path d="M46.75 297.18 a48.44 48.44 0 1 0 96.88 0 a48.44 48.44 0 1 0 -96.88 0z" fill="#037b0b"></path><path d="M976.09 444.55L1004.25 444.55L1004.25 472.71L976.09 472.71z" fill="#e73635"></path><path d="M382.21 348.24 a6.99 6.99 0 1 0 13.98 0 a6.99 6.99 0 1 0 -13.98 0z" fill="#037b0b"></path><path d="M312.99 183.64L325.65 183.64L325.65 196.3L312.99 196.3z" stroke="#037b0b"></path><path d="M755.67 147.75L785.9 147.75L785.9 177.98L755.67 177.98z" fill="#e73635"></path><path d="M670.39 295.4L707.81 295.4L707.81 331.2L670.39 331.2z" stroke="#e73635"></path><path d="M401.57 30.09L445.76 30.09L445.76 55.17L401.57 55.17z" fill="#037b0b"></path><path d="M1356.08 15.71 a31.65 31.65 0 1 0 63.3 0 a31.65 31.65 0 1 0 -63.3 0z" stroke="#037b0b"></path><path d="M1045.88 546.14L1074.1 546.14L1074.1 568.53L1045.88 568.53z" stroke="#e73635"></path><path d="M799.21 215.22a28.39 28.39 0 1 0 56.46-6.1z" stroke="#037b0b"></path><path d="M16.49 306.2a45.02 45.02 0 1 0 3.37-89.97z" stroke="#d3b714"></path><path d="M985.26 71.28L995.76 71.28L995.76 81.78L985.26 81.78z" stroke="#e73635"></path><path d="M810.09 92.31L826.85 92.31L826.85 94.8L810.09 94.8z" fill="#d3b714"></path><path d="M1117.55 391.3L1153.37 391.3L1153.37 427.12L1117.55 427.12z" stroke="#e73635"></path><path d="M392.14 28.36 a42.77 42.77 0 1 0 85.54 0 a42.77 42.77 0 1 0 -85.54 0z" stroke="#037b0b"></path><path d="M1177.95 77.6 a39.71 39.71 0 1 0 79.42 0 a39.71 39.71 0 1 0 -79.42 0z" fill="#e73635"></path><path d="M1384.27 324.36L1422.23 324.36L1422.23 329.55L1384.27 329.55z" fill="#d3b714"></path><path d="M724.24 74.04L726.11 74.04L726.11 75.91L724.24 75.91z" fill="#e73635"></path><path d="M1115.88 100L1157.19 100L1157.19 141.31L1115.88 141.31z" fill="#d3b714"></path></g><defs><mask id="SvgjsMask1023"><rect width="1440" height="560" fill="#ffffff"></rect></mask></defs></svg>